# xmcd
#
# Track frame offsets:
#	150
#	17380
#	33104
#	50319
#	68458
#	81716
#	100270
#	116318
#	132589
#	146287
#	159966
#	175674
#	191505
#	208984
#	226848
#	242952
#	258812
#	276584
#	293241
#	308258
#
# Disc length: 4366 seconds
# Revision: 1
# Processed by: cddbd v1.5.2PL0 Copyright (c) Steve Scherf et al.
# Submitted via: dBpowerAMP V12.0
#
DISCID=0b110c14
DTITLE=Various Artist - Country Radio June 2009 
DYEAR=2009
DGENRE=Country
TTITLE0=Darius Rucker - Alright
TTITLE1=Road Hammers The - I've Got The Scars To Prove It
TTITLE2=Taylor Swift - You Belong With Me
TTITLE3=Martina McBride - I Just Call You Mine
TTITLE4=Reba McEntire - Strange
TTITLE5=Tara Oram - Go To Bed Angry
TTITLE6=Jimmy Wayne - I'll Be That
TTITLE7=Caitlin and Will - Address In The Stars
TTITLE8=One More Girl - Misery Loves Company
TTITLE9=Joe Nichols - Believers
TTITLE10=Kate and Kacey - Dreaming Love
TTITLE11=Victoria Banks - The Wheel
TTITLE12=Lee Ann Womack - Solitary Thinkin
TTITLE13=Luke Bryan - Do I
TTITLE14=Pat Green - What I'm For
TTITLE15=Jaydee Bixby - Broken Windows
TTITLE16=Hank Williams Jr - Red White and Pink Slip Blues
TTITLE17=Miranda Lambert - Dead Flowers
TTITLE18=Phil Vassar - Prayer Of A Common Man
TTITLE19=Carrie Underwood and Randy Travis - I Told You So [New Duet Version]
EXTD=
EXTT0=
EXTT1=
EXTT2=
EXTT3=
EXTT4=
EXTT5=
EXTT6=
EXTT7=
EXTT8=
EXTT9=
EXTT10=
EXTT11=
EXTT12=
EXTT13=
EXTT14=
EXTT15=
EXTT16=
EXTT17=
EXTT18=
EXTT19=
PLAYORDER=
